<svg xmlns="http://www.w3.org/2000/svg" width="24" height="16" viewBox="0 0 24 16"><g fill-rule="evenodd"><rect width="24" height="16" rx="3" opacity=".48"/><path fill="#fff" d="M11.795 8.767c0 1.081-.223 1.908-.671 2.481-.448.573-1.103.86-1.966.86-.852 0-1.504-.282-1.955-.844-.451-.562-.682-1.368-.693-2.417v-1.44c0-1.091.227-1.92.68-2.486.453-.566 1.105-.849 1.957-.849.853 0 1.504.28 1.956.84.45.561.682 1.366.692 2.415v1.44zm-1.552-1.58c0-.648-.088-1.12-.266-1.415-.177-.295-.454-.443-.83-.443-.365 0-.634.14-.808.422-.174.28-.266.72-.277 1.318v1.902c0 .637.087 1.11.261 1.42.174.31.452.465.835.465.38 0 .654-.149.822-.446.168-.297.256-.752.263-1.364V7.188zm5.796.436h1.939v1.401h-1.94v2.192h-1.476V9.024h-1.945V7.623h1.945v-2.1h1.477v2.1z" opacity=".48"/></g></svg>