<svg xmlns="http://www.w3.org/2000/svg" width="24" height="16" viewBox="0 0 24 16"><g fill-rule="evenodd"><rect width="24" height="16" rx="3" opacity=".48"/><path fill="#fff" d="M7.302 12H5.75V6.017l-1.853.574V5.33l3.239-1.16h.166V12zm6.752-7.9v1.277h-.15c-.703.011-1.267.194-1.695.548-.428.355-.685.847-.771 1.477.415-.422.94-.633 1.574-.633.68 0 1.22.243 1.622.73.4.487.601 1.128.601 1.923 0 .508-.11.968-.33 1.38-.22.412-.532.733-.935.962-.402.229-.858.343-1.366.343-.824 0-1.49-.286-1.996-.859-.507-.573-.76-1.337-.76-2.293v-.559c0-.849.16-1.598.48-2.248.321-.65.781-1.153 1.381-1.51.6-.355 1.296-.535 2.087-.539h.258zm-1.515 3.915a1.238 1.238 0 0 0-1.133.714v.473c0 .519.102.924.306 1.216.204.292.49.438.86.438a.978.978 0 0 0 .808-.395c.206-.263.308-.604.308-1.023 0-.426-.103-.77-.311-1.031a1.015 1.015 0 0 0-.838-.392zm6.81-.392h1.94v1.401h-1.94v2.192h-1.476V9.024h-1.945V7.623h1.945v-2.1h1.477v2.1z" opacity=".48"/></g></svg>