<svg xmlns="http://www.w3.org/2000/svg" width="24" height="16" viewBox="0 0 24 16">
  <g fill-rule="evenodd">
    <rect width="24" height="16" rx="3" opacity=".48" />
    <path fill="#fff"
      d="M7.302 12H5.75V6.017l-1.853.574V5.33l3.239-1.16h.166V12zm7.638-5.742c0 .38-.095.716-.285 1.01-.19.294-.45.528-.784.704.38.182.68.434.902.754.222.32.333.698.333 1.13 0 .696-.236 1.244-.709 1.647-.472.403-1.115.604-1.928.604s-1.457-.202-1.933-.607c-.477-.404-.715-.952-.715-1.643 0-.433.111-.811.333-1.133.222-.323.521-.573.897-.752a2.028 2.028 0 0 1-.781-.704 1.832 1.832 0 0 1-.282-1.01c0-.666.222-1.197.666-1.592.444-.396 1.047-.594 1.81-.594.759 0 1.361.196 1.807.588.446.392.669.925.669 1.598zm-1.391 3.486c0-.34-.099-.612-.296-.816-.197-.204-.461-.306-.795-.306-.329 0-.592.1-.79.303-.196.202-.294.475-.294.82 0 .332.096.6.29.805.193.204.461.306.805.306.337 0 .6-.099.792-.295.192-.197.288-.47.288-.817zm-.161-3.41c0-.305-.08-.55-.242-.734-.161-.184-.389-.276-.682-.276-.29 0-.516.09-.677.268-.161.18-.242.426-.242.741 0 .312.081.563.242.752.161.19.389.285.682.285.294 0 .52-.095.68-.285.159-.19.239-.44.239-.752zm5.962 1.289h1.939v1.401h-1.94v2.192h-1.476V9.024h-1.945V7.623h1.945v-2.1h1.477v2.1z"
      opacity=".48" />
  </g>
</svg>