<svg xmlns="http://www.w3.org/2000/svg" width="24" height="16" viewBox="0 0 24 16">
  <g fill-rule="evenodd">
    <rect width="24" height="16" rx="3" opacity=".48" />
    <path fill="#fff"
      d="M7.302 12H5.75V6.017l-1.853.574V5.33l3.239-1.16h.166V12zm7.901 0h-5.36v-1.063l2.53-2.697c.347-.38.604-.71.77-.993.167-.283.25-.552.25-.806 0-.347-.088-.62-.263-.82-.176-.198-.426-.297-.752-.297-.351 0-.628.12-.83.362-.202.242-.303.56-.303.954H9.687c0-.477.114-.912.341-1.306.227-.393.549-.702.964-.926a2.93 2.93 0 0 1 1.413-.336c.805 0 1.431.194 1.877.58.446.387.669.933.669 1.639 0 .386-.1.78-.301 1.181-.2.401-.544.868-1.031 1.402l-1.778 1.875h3.362V12zm4.147-4.377h1.939v1.401h-1.94v2.192h-1.476V9.024h-1.945V7.623h1.945v-2.1h1.477v2.1z"
      opacity=".48" />
  </g>
</svg>