<svg xmlns="http://www.w3.org/2000/svg" width="44" height="44" viewBox="0 0 44 44" fill="none">
    <path
        d="M21.5333 35.28C23.1066 36.1333 24.9599 36.56 27.0933 36.56C29.2799 36.56 31.2799 36.0933 33.0933 35.16C34.9066 34.2267 36.4666 32.9333 37.7733 31.28C39.1066 29.6 40.1333 27.6533 40.8533 25.44C41.5999 23.2 41.9733 20.8 41.9733 18.24C41.9733 15.9467 41.5333 14 40.6533 12.4C39.7999 10.8 38.5866 9.57334 37.0133 8.72C35.4666 7.86667 33.6266 7.44 31.4933 7.44C29.3066 7.44 27.3066 7.90667 25.4933 8.84C23.6799 9.77334 22.1066 11.08 20.7733 12.76C19.4399 14.4133 18.4133 16.36 17.6933 18.6C16.9733 20.8133 16.6133 23.2 16.6133 25.76C16.6133 28.0533 17.0399 30 17.8933 31.6C18.7466 33.2 19.9599 34.4267 21.5333 35.28ZM30.5733 28.92C29.7999 29.6933 28.8933 30.08 27.8533 30.08C26.8666 30.08 26.0666 29.7333 25.4533 29.04C24.8666 28.3467 24.5733 27.1867 24.5733 25.56C24.5733 24.44 24.6933 23.2133 24.9333 21.88C25.1999 20.5467 25.5866 19.28 26.0933 18.08C26.5999 16.88 27.2399 15.8933 28.0133 15.12C28.7866 14.32 29.6933 13.92 30.7333 13.92C31.7199 13.92 32.5066 14.2667 33.0933 14.96C33.7066 15.6533 34.0133 16.8133 34.0133 18.44C34.0133 19.56 33.8799 20.7867 33.6133 22.12C33.3733 23.4533 32.9999 24.72 32.4933 25.92C31.9866 27.12 31.3466 28.12 30.5733 28.92Z"
        fill="url(#paint0_linear_5932_9198)" />
    <path d="M7.20901 14.12L2.84 36H10.76L16.36 8H3.24L2 14.12H7.20901Z"
        fill="url(#paint1_linear_5932_9198)" />
    <defs>
        <linearGradient id="paint0_linear_5932_9198" x1="14.865" y1="-5.5" x2="2.295" y2="58.58"
            gradientUnits="userSpaceOnUse">
            <stop stop-color="#fff" />
            <stop offset="1" stop-color="#131119" stop-opacity="0" />
        </linearGradient>
        <linearGradient id="paint1_linear_5932_9198" x1="14.865" y1="-5.5" x2="2.295" y2="58.58"
            gradientUnits="userSpaceOnUse">
            <stop stop-color="#fff" />
            <stop offset="1" stop-color="#131119" stop-opacity="0" />
        </linearGradient>
    </defs>
</svg>