<svg xmlns="http://www.w3.org/2000/svg" width="32" height="44" viewBox="0 0 32 44">
    <path
        d="M3.06738 36L4.06738 31.04L16.3074 21.52C17.2674 20.7467 18.0141 20.08 18.5474 19.52C19.0807 18.96 19.4541 18.4267 19.6674 17.92C19.9074 17.4133 20.0274 16.9067 20.0274 16.4C20.0274 15.6267 19.734 15 19.1474 14.52C18.5607 14.04 17.7207 13.8 16.6274 13.8C15.6674 13.8 14.734 14.0533 13.8274 14.56C12.9474 15.04 12.1474 15.72 11.4274 16.6L6.14738 13.12C7.26738 11.3867 8.85405 10.0133 10.9074 9C12.9607 7.96 15.2674 7.44 17.8274 7.44C19.8541 7.44 21.6407 7.77334 23.1874 8.44C24.7607 9.10667 25.9741 10.0267 26.8274 11.2C27.7074 12.3467 28.1474 13.68 28.1474 15.2C28.1474 16.32 27.9474 17.4 27.5474 18.44C27.1474 19.48 26.4674 20.5467 25.5074 21.64C24.5741 22.7067 23.2674 23.88 21.5874 25.16L12.0274 32.56L10.9474 29.72H26.1474L24.8674 36H3.06738Z"
        fill="url(#paint0_linear_5092_4524)" />
    <defs>
        <linearGradient id="paint0_linear_5092_4524" x1="23.2" y1="-5.5" x2="10.63" y2="58.58"
            gradientUnits="userSpaceOnUse">
            <stop stop-color="#fff" />
            <stop offset="1" stop-color="#131119" stop-opacity="0" />
        </linearGradient>
    </defs>
</svg>