<svg xmlns="http://www.w3.org/2000/svg" width="32" height="44" viewBox="0 0 32 44">
    <path
        d="M12.9096 36.56C10.883 36.56 8.96298 36.3067 7.14965 35.8C5.33632 35.2667 3.74965 34.4933 2.38965 33.48L6.06965 27.84C7.08298 28.5867 8.22965 29.16 9.50965 29.56C10.8163 29.96 12.123 30.16 13.4296 30.16C14.523 30.16 15.443 30.04 16.1896 29.8C16.9363 29.5333 17.4963 29.16 17.8696 28.68C18.2696 28.1733 18.4696 27.5733 18.4696 26.88C18.4696 26.1067 18.163 25.52 17.5496 25.12C16.963 24.72 16.0296 24.52 14.7496 24.52H11.3496L12.3496 19.52L21.3496 11.4L21.7896 14.12H7.38965L8.62965 8H28.8696L27.9097 12.96L18.9096 21.08L15.3096 18.96H17.0696C19.0163 18.96 20.683 19.2667 22.0696 19.88C23.483 20.4667 24.563 21.32 25.3097 22.44C26.083 23.56 26.4697 24.88 26.4697 26.4C26.4697 28.3467 25.883 30.0933 24.7097 31.64C23.563 33.16 21.963 34.36 19.9096 35.24C17.8563 36.12 15.523 36.56 12.9096 36.56Z"
        fill="url(#paint0_linear_5092_4525)" />
    <defs>
        <linearGradient id="paint0_linear_5092_4525" x1="23.2" y1="-5.5" x2="10.63" y2="58.58"
            gradientUnits="userSpaceOnUse">
            <stop stop-color="#fff" />
            <stop offset="1" stop-color="#131119" stop-opacity="0" />
        </linearGradient>
    </defs>
</svg>