<svg xmlns="http://www.w3.org/2000/svg" width="32" height="44" viewBox="0 0 32 44">
    <path
        d="M13.3315 36.56C11.3049 36.56 9.37152 36.3067 7.53152 35.8C5.71819 35.2667 4.14486 34.4933 2.81152 33.48L6.49152 27.84C7.47819 28.5867 8.61152 29.16 9.89152 29.56C11.1982 29.96 12.5182 30.16 13.8515 30.16C15.4782 30.16 16.7182 29.88 17.5715 29.32C18.4515 28.7333 18.8915 27.9333 18.8915 26.92C18.8915 26.12 18.5582 25.4933 17.8915 25.04C17.2249 24.5867 16.0649 24.36 14.4115 24.36H6.37152L11.0515 8H28.8515L27.6115 14.12H12.6115L17.3715 10.64L14.2115 21.68L10.8915 18.2H16.4115C19.8515 18.2 22.4515 18.88 24.2115 20.24C25.9982 21.5733 26.8915 23.4933 26.8915 26C26.8915 28.16 26.3049 30.04 25.1315 31.64C23.9582 33.2133 22.3449 34.4267 20.2915 35.28C18.2649 36.1333 15.9449 36.56 13.3315 36.56Z"
        fill="url(#paint0_linear_5092_4527)" />
    <defs>
        <linearGradient id="paint0_linear_5092_4527" x1="23.2" y1="-5.5" x2="10.63" y2="58.58"
            gradientUnits="userSpaceOnUse">
            <stop stop-color="#fff" />
            <stop offset="1" stop-color="#131119" stop-opacity="0" />
        </linearGradient>
    </defs>
</svg>