<svg xmlns="http://www.w3.org/2000/svg" width="32" height="44" viewBox="0 0 32 44">
    <path
        d="M16.2513 36.56C13.9847 36.56 11.9713 36.1333 10.2113 35.28C8.45133 34.4267 7.07799 33.16 6.09133 31.48C5.10466 29.7733 4.61133 27.6667 4.61133 25.16C4.61133 23.56 4.81133 21.92 5.21133 20.24C5.63799 18.56 6.29133 16.96 7.17133 15.44C8.078 13.92 9.21133 12.56 10.5713 11.36C11.958 10.16 13.598 9.21334 15.4913 8.52C17.3847 7.8 19.558 7.44 22.0113 7.44C23.638 7.44 25.198 7.62667 26.6913 8C28.1847 8.34667 29.398 8.84 30.3313 9.48L26.7313 15.08C25.9847 14.5733 25.1713 14.2267 24.2913 14.04C23.438 13.8267 22.5313 13.72 21.5713 13.72C20.5047 13.72 19.5447 13.8533 18.6913 14.12C17.838 14.3867 17.078 14.7733 16.4113 15.28C15.7713 15.76 15.2113 16.3467 14.7313 17.04C14.278 17.7067 13.9047 18.44 13.6113 19.24C13.3447 20.04 13.1447 20.8933 13.0113 21.8C12.9313 22.3333 12.878 22.8 12.8513 23.2C12.8247 23.5733 12.8113 23.9467 12.8113 24.32L10.8913 23.28C11.478 22.08 12.1713 21.1067 12.9713 20.36C13.7713 19.6133 14.678 19.0667 15.6913 18.72C16.7313 18.3467 17.878 18.16 19.1313 18.16C20.678 18.16 22.118 18.48 23.4513 19.12C24.8113 19.7333 25.9047 20.64 26.7313 21.84C27.5847 23.04 28.0113 24.5067 28.0113 26.24C28.0113 28.3467 27.5047 30.1733 26.4913 31.72C25.478 33.24 24.078 34.4267 22.2913 35.28C20.5313 36.1333 18.518 36.56 16.2513 36.56ZM16.1713 30.92C17.318 30.92 18.278 30.5733 19.0513 29.88C19.8247 29.1867 20.2113 28.2267 20.2113 27C20.2113 26.0133 19.8913 25.24 19.2513 24.68C18.6113 24.12 17.7447 23.84 16.6513 23.84C15.8513 23.84 15.1447 24 14.5313 24.32C13.918 24.6133 13.4247 25.0533 13.0513 25.64C12.7047 26.2 12.5313 26.8533 12.5313 27.6C12.5313 28.2133 12.6647 28.7733 12.9313 29.28C13.2247 29.76 13.638 30.16 14.1713 30.48C14.7313 30.7733 15.398 30.92 16.1713 30.92Z"
        fill="url(#paint0_linear_5092_4528)" />
    <defs>
        <linearGradient id="paint0_linear_5092_4528" x1="23.2" y1="-5.5" x2="10.63" y2="58.58"
            gradientUnits="userSpaceOnUse">
            <stop stop-color="#fff" />
            <stop offset="1" stop-color="#131119" stop-opacity="0" />
        </linearGradient>
    </defs>
</svg>