<svg xmlns="http://www.w3.org/2000/svg" width="32" height="44" viewBox="0 0 32 44">
    <path
        d="M15.0608 36.56C12.7141 36.56 10.6608 36.2267 8.90078 35.56C7.14078 34.8933 5.76745 33.96 4.78078 32.76C3.79411 31.5333 3.30078 30.12 3.30078 28.52C3.30078 26.5733 3.83411 24.9333 4.90078 23.6C5.96745 22.24 7.43411 21.2133 9.30078 20.52C11.1941 19.8 13.3541 19.44 15.7808 19.44C18.1541 19.44 20.2208 19.76 21.9808 20.4C23.7408 21.0133 25.1141 21.8933 26.1008 23.04C27.0874 24.1867 27.5808 25.56 27.5808 27.16C27.5808 29.1067 27.0474 30.7867 25.9808 32.2C24.9141 33.5867 23.4341 34.6667 21.5408 35.44C19.6741 36.1867 17.5141 36.56 15.0608 36.56ZM15.1808 31C16.5141 31 17.5808 30.6667 18.3808 30C19.2074 29.3333 19.6208 28.4133 19.6208 27.24C19.6208 26.2267 19.2608 25.44 18.5408 24.88C17.8474 24.32 16.9008 24.04 15.7008 24.04C14.3674 24.04 13.2874 24.3733 12.4608 25.04C11.6341 25.7067 11.2208 26.6267 11.2208 27.8C11.2208 28.7867 11.5941 29.5733 12.3408 30.16C13.0874 30.72 14.0341 31 15.1808 31ZM17.5408 23.36C15.4074 23.36 13.5141 23.08 11.8608 22.52C10.2341 21.9333 8.95411 21.1067 8.02078 20.04C7.11411 18.9467 6.66078 17.6667 6.66078 16.2C6.66078 14.36 7.15411 12.8 8.14078 11.52C9.12745 10.2133 10.4874 9.21334 12.2208 8.52C13.9541 7.8 15.9408 7.44 18.1808 7.44C20.3408 7.44 22.2341 7.76 23.8608 8.4C25.4874 9.01334 26.7541 9.88 27.6608 11C28.5674 12.0933 29.0208 13.3867 29.0208 14.88C29.0208 16.6933 28.5275 18.24 27.5408 19.52C26.5808 20.7733 25.2341 21.7333 23.5008 22.4C21.7941 23.04 19.8074 23.36 17.5408 23.36ZM17.6608 18.88C18.7008 18.88 19.5408 18.6 20.1808 18.04C20.8474 17.4533 21.1808 16.6533 21.1808 15.64C21.1808 14.7867 20.8874 14.1333 20.3008 13.68C19.7408 13.2267 18.9941 13 18.0608 13C17.0208 13 16.1674 13.2933 15.5008 13.88C14.8608 14.44 14.5408 15.2267 14.5408 16.24C14.5408 17.0667 14.8208 17.72 15.3808 18.2C15.9674 18.6533 16.7274 18.88 17.6608 18.88Z"
        fill="url(#paint0_linear_5092_4530)" />
    <defs>
        <linearGradient id="paint0_linear_5092_4530" x1="23.2" y1="-5.5" x2="10.63" y2="58.58"
            gradientUnits="userSpaceOnUse">
            <stop stop-color="#fff" />
            <stop offset="1" stop-color="#131119" stop-opacity="0" />
        </linearGradient>
    </defs>
</svg>