<svg xmlns="http://www.w3.org/2000/svg" width="32" height="44" viewBox="0 0 32 44">
    <path
        d="M17.0116 7.44C19.305 7.44 21.3183 7.86667 23.0516 8.72C24.785 9.57334 26.145 10.8533 27.1316 12.56C28.145 14.24 28.6516 16.3333 28.6516 18.84C28.6516 20.44 28.4383 22.08 28.0116 23.76C27.6116 25.44 26.9583 27.04 26.0516 28.56C25.1716 30.08 24.0383 31.44 22.6516 32.64C21.2916 33.84 19.665 34.8 17.7716 35.52C15.8783 36.2133 13.705 36.56 11.2516 36.56C9.62497 36.56 8.06497 36.3733 6.57164 36C5.07831 35.6533 3.86497 35.16 2.93164 34.52L6.53164 28.92C7.27831 29.4267 8.07831 29.7867 8.93164 30C9.78497 30.1867 10.705 30.28 11.6916 30.28C12.7583 30.28 13.7183 30.1467 14.5716 29.88C15.425 29.6133 16.1716 29.24 16.8116 28.76C17.4783 28.2533 18.0383 27.6667 18.4916 27C18.9716 26.3067 19.345 25.56 19.6116 24.76C19.905 23.96 20.1183 23.1067 20.2516 22.2C20.3316 21.6667 20.3716 21.2133 20.3716 20.84C20.3983 20.44 20.425 20.0533 20.4516 19.68L22.3716 20.72C21.8116 21.8933 21.1183 22.8667 20.2916 23.64C19.4916 24.3867 18.5983 24.9467 17.6116 25.32C16.625 25.6667 15.5583 25.84 14.4116 25.84C12.8116 25.84 11.305 25.5333 9.89164 24.92C8.50497 24.28 7.38497 23.36 6.53164 22.16C5.67831 20.96 5.25164 19.4933 5.25164 17.76C5.25164 15.6267 5.75831 13.8 6.77164 12.28C7.78497 10.76 9.17164 9.57334 10.9316 8.72C12.7183 7.86667 14.745 7.44 17.0116 7.44ZM17.0916 13.08C15.9716 13.08 15.0116 13.4267 14.2116 14.12C13.4383 14.8133 13.0516 15.7733 13.0516 17C13.0516 17.9867 13.3716 18.76 14.0116 19.32C14.6516 19.88 15.5183 20.16 16.6116 20.16C17.4116 20.16 18.1183 20.0133 18.7316 19.72C19.345 19.4 19.825 18.9467 20.1716 18.36C20.545 17.7733 20.7316 17.12 20.7316 16.4C20.7316 15.7867 20.585 15.24 20.2916 14.76C20.025 14.2533 19.625 13.8533 19.0916 13.56C18.5583 13.24 17.8916 13.08 17.0916 13.08Z"
        fill="url(#paint0_linear_5092_4531)" />
    <defs>
        <linearGradient id="paint0_linear_5092_4531" x1="23.2" y1="-5.5" x2="10.63" y2="58.58"
            gradientUnits="userSpaceOnUse">
            <stop stop-color="#fff" />
            <stop offset="1" stop-color="#131119" stop-opacity="0" />
        </linearGradient>
    </defs>
</svg>