<svg xmlns="http://www.w3.org/2000/svg" width="1180" height="56" viewBox="0 0 1180 56"><defs><radialGradient id="a" cy="50.238%" r="46.559%" fx="50%" fy="50.238%" gradientTransform="matrix(0 1 -.99995 0 1.002 .002)"><stop offset="0%" stop-color="#A869F0"/><stop offset="100%" stop-color="#7C0AFF" stop-opacity="0"/></radialGradient><radialGradient id="b" cy="50.238%" r="46.559%" fx="50%" fy="50.238%" gradientTransform="matrix(0 1 -.99995 0 1.002 .002)"><stop offset=".67%" stop-color="#BD1542"/><stop offset="100%" stop-color="#7C0AFF" stop-opacity="0"/></radialGradient><radialGradient id="c" cy="50.238%" r="46.559%" fx="50%" fy="50.238%" gradientTransform="matrix(0 1 -.99995 0 1.002 .002)"><stop offset=".67%" stop-color="#BD1542"/><stop offset="100%" stop-color="#7C0AFF" stop-opacity="0"/></radialGradient><radialGradient id="d" r="46.797%" fx="50%" fy="50%" gradientTransform="matrix(0 1 -.99995 0 1 0)"><stop offset=".509%" stop-color="#A869F0"/><stop offset="100%" stop-color="#7C0AFF" stop-opacity="0"/></radialGradient><radialGradient id="e" r="46.797%" fx="50%" fy="50%" gradientTransform="matrix(0 1 -.99995 0 1 0)"><stop offset=".509%" stop-color="#A869F0"/><stop offset="100%" stop-color="#7C0AFF" stop-opacity="0"/></radialGradient></defs><g fill="none" fill-rule="evenodd" opacity=".159" transform="translate(-15.6 -249)"><ellipse cx="340.594" cy="309.547" fill="url(#a)" rx="136.994" ry="136.988"/><ellipse cx="527.542" cy="223.267" fill="url(#b)" rx="223.278" ry="223.267"/><ellipse cx="203.221" cy="294.789" fill="url(#c)" rx="203.221" ry="203.211"/><ellipse cx="1007.779" cy="237.269" fill="url(#c)" rx="203.221" ry="203.211"/><ellipse cx="751.198" cy="287.977" fill="url(#c)" rx="203.221" ry="203.211"/><ellipse cx="720.545" cy="320.9" fill="url(#d)" rx="156.673" ry="156.666"/><ellipse cx="907.872" cy="253.919" fill="url(#e)" rx="162.35" ry="162.342"/><ellipse cx="427.634" cy="209.266" fill="#281F55" fill-opacity=".216" rx="102.178" ry="93.47"/><ellipse cx="323.942" cy="309.169" fill="#281F55" fill-opacity=".216" rx="102.178" ry="93.47"/><ellipse cx="547.977" cy="377.284" fill="#110D2B" fill-opacity=".139" rx="102.178" ry="93.47"/><ellipse cx="614.961" cy="320.9" fill="#281F55" fill-opacity=".216" rx="66.983" ry="61.304"/><ellipse cx="683.837" cy="268.299" fill="#281F55" fill-opacity=".216" rx="66.983" ry="73.035"/><ellipse cx="799.638" cy="202.454" fill="#281F55" fill-opacity=".216" rx="114.667" ry="104.822"/><ellipse cx="977.883" cy="266.029" fill="#281F55" fill-opacity=".216" rx="112.774" ry="103.163"/></g></svg>