<svg xmlns="http://www.w3.org/2000/svg" width="24" height="32" viewBox="0 0 24 32" fill="none"><path d="M18.1542 3.55905C17.9211 4.48537 16.7702 8.83602 16.16 10.9314C18.7736 10.8599 20.4297 10.873 21.8761 10.9314C23.7602 11.0074 24.596 12.6347 23.533 14.2054C21.2469 17.5834 19.8875 19.4268 17.5726 22.1778C14.9368 25.3102 12.8189 27.7097 9.99564 29.9568C6.67911 32.5967 4.77697 29.6709 5.52873 27.317C6.00826 25.8155 7.05224 23.1293 7.85375 20.983C4.9261 21.1345 4.46097 21.2182 2.2887 21.053C-0.396585 20.8489 -0.462306 18.7796 0.775716 17.048C2.28819 14.9325 4.51629 11.8668 7.16797 8.95998C9.95525 5.90446 12.913 2.93377 13.7922 2.15037C16.6225 -0.371419 18.6008 1.78383 18.1542 3.55905Z" fill="#7D0E2B"/><path d="M17.0575 3.61736C16.8257 4.54459 15.312 9.85903 14.7048 11.9564C16.4471 11.8524 19.683 11.8653 21.1204 11.9564C22.906 12.0696 22.762 13.5628 21.9867 14.6364C20.0096 17.3738 19.0461 18.8137 16.8764 21.3705C15.1742 23.3762 12.8726 25.9899 10.0397 28.6439C7.20682 31.2979 5.9301 29.4648 6.5265 27.5861C7.00362 26.0832 8.22841 21.9893 9.02591 19.8408C6.74188 20.0221 5.00717 20.1889 2.82687 20.0221C0.506225 19.8445 1.05305 18.2153 2.29222 16.4387C3.79259 14.2876 5.45911 12.2901 8.16649 9.23299C10.962 6.07636 13.9698 3.13447 14.9462 2.49971C16.8626 1.25389 17.3472 2.45831 17.0575 3.61736Z" fill="url(#paint0_linear_5732_9771)"/><path d="M13.1284 11.6982C12.8698 12.5314 13.0422 12.9337 13.8467 12.9625H19.7367C21.317 12.9625 20.9196 13.7908 20.6801 14.2095C19.9905 15.4151 17.2409 18.3932 15.7688 20.1558C13.5762 22.7811 11.0406 25.6123 8.94583 27.4657C8.07674 28.2346 7.31947 27.8828 7.67042 26.6223C8.20566 24.6998 9.31149 21.3146 9.83433 19.8774C10.3514 18.4563 9.52591 18.5277 8.32433 18.5959C7.22521 18.6582 5.70254 18.7777 4.01515 18.7277C2.91446 18.6951 2.5381 18.027 3.11274 17.0788C3.68737 16.1307 6.04291 12.4966 8.32344 10.0256C10.6535 7.50104 13.1282 4.80773 14.6992 3.7817C15.7281 3.10972 16.1047 3.25892 15.7312 4.09215C15.3576 4.92537 13.387 10.865 13.1284 11.6982Z" fill="url(#paint1_linear_5732_9771)"/><path d="M10.9452 9.24353C11.2483 9.76748 12.1229 9.44927 12.9486 8.7549C13.786 8.05062 13.9348 7.35126 13.7557 6.9814C13.5767 6.61153 12.5523 6.84993 11.7159 7.65462C11.0648 8.28105 10.8626 8.93529 10.9452 9.24353ZM12.3967 11.973C12.6506 11.1442 12.9743 10.2198 13.3411 9.50887C12.8524 9.85094 12.6693 9.90094 11.1273 10.193C9.66857 10.4693 8.23441 11.3399 7.41901 12.4271C6.17375 14.0874 5.6409 15.05 5.35293 16.0348C4.94147 17.442 5.48565 17.732 7.05031 17.732C7.32812 17.732 7.86063 17.7157 8.44197 17.6979L8.44205 17.6979C9.14081 17.6766 9.9101 17.6531 10.3925 17.6531C10.7975 17.6531 11.4187 18.1793 11.1273 19.074C11.1273 19.074 11.7423 18.2665 13.3672 17.2171C13.882 16.8846 14.4672 16.6682 15.0308 16.4597C15.9773 16.1096 16.8628 15.7821 17.2504 14.9657C17.5082 14.4226 17.1168 13.785 16.573 13.785C16.4339 13.785 16.2271 13.7927 15.9722 13.8021C15.2309 13.8295 14.0829 13.872 13.0106 13.785C11.7894 13.686 12.1141 12.775 12.322 12.1917L12.322 12.1917C12.3506 12.1117 12.3769 12.0378 12.3967 11.973ZM10.423 24.4815C9.66883 25.0431 9.51798 24.4799 9.60644 23.8646C9.81429 22.4188 10.0186 21.5195 10.8556 20.4542C11.9602 19.0484 12.5684 18.5768 13.9627 18.1596C15.4428 17.7166 16.5018 17.8599 15.5888 19.2049C14.9592 20.1325 11.7584 23.4868 10.423 24.4815Z" fill="url(#paint2_linear_5732_9771)"/><path d="M9.99408 17.7443C8.89546 17.6736 7.24332 17.7628 6.58496 17.8227C7.58171 17.4839 10.0832 16.7089 11.9348 16.5263C13.7864 16.3436 13.4967 17.7234 13.0571 18.472C11.8191 20.5802 9.99408 23.2541 9.01665 24.5697C9.52538 23.159 10.1587 21.2906 10.6815 19.7624C10.9247 19.0515 10.8678 17.8005 9.99408 17.7443Z" fill="#fff"/><defs><linearGradient id="paint0_linear_5732_9771" x1="7.568" y1="29.973" x2="16.301" y2="1.973" gradientUnits="userSpaceOnUse"><stop offset=".042" stop-color="#FFA800"/><stop offset=".196" stop-color="#ED6700"/><stop offset=".369" stop-color="#D2610A"/><stop offset=".544" stop-color="#ED6700"/><stop offset=".829" stop-color="#FF9800"/><stop offset="1" stop-color="#FFC700"/></linearGradient><linearGradient id="paint1_linear_5732_9771" x1="12.05" y1="3.013" x2="12.05" y2="27.775" gradientUnits="userSpaceOnUse"><stop stop-color="#FFDE2E"/><stop offset=".711" stop-color="#FFE853"/></linearGradient><linearGradient id="paint2_linear_5732_9771" x1="13.135" y1="3.993" x2=".417" y2="21.09" gradientUnits="userSpaceOnUse"><stop offset=".114" stop-color="#F1A104"/><stop offset=".402" stop-color="#F87B08"/><stop offset=".754" stop-color="#FFBD00"/></linearGradient></defs></svg>