<svg xmlns="http://www.w3.org/2000/svg" width="48" height="48" viewBox="0 0 48 48" fill="none"><path d="M32.3381 12.0028C30.3311 12.0028 28.7257 12.806 27.1194 15.1692L20.8755 24.5804L21.4556 17.2659C21.6342 14.5002 19.8947 12.0028 16.8171 12.0028C13.9626 12.0028 12.1786 13.921 12 16.3739L11.0192 29.8435C10.7962 33.1885 12.5357 35.1066 15.3005 35.1066C18.0653 35.1066 19.8049 33.0997 21.0985 31.2713L27.1194 22.1284L26.5846 29.8445C26.3172 32.9664 28.0114 35.1075 31.0889 35.1075C33.9435 35.1075 35.8163 33.4124 35.9949 30.8706L36.9757 17.2669C37.1987 14.5909 35.9051 12.0037 32.3372 12.0037L32.3381 12.0028Z" fill="url(#paint0_linear_4263_3051)"/><path d="M21.4556 17.2631L20.8755 24.5776L21.0985 31.2684C19.8049 33.0968 18.0653 35.1038 15.3005 35.1038C12.5357 35.1038 10.7962 33.1857 11.0192 29.8407L12 16.3711C12.1786 13.9181 13.9626 12 16.8171 12C19.8947 12 21.6342 14.4974 21.4556 17.2631Z" fill="url(#paint1_linear_4263_3051)"/><path d="M21.4638 16.8851C21.4638 14.3331 19.814 12.0023 16.7808 12.0023C13.7477 12.0023 11.9878 14.2767 11.9878 16.7296C11.9878 19.3612 13.9624 21.4126 16.7272 21.4126C19.492 21.4126 21.4638 19.5157 21.4638 16.8841V16.8851Z" fill="#fff"/><defs><linearGradient id="paint0_linear_4263_3051" x1="22.974" y1="23.441" x2="13.326" y2="22.216" gradientUnits="userSpaceOnUse"><stop offset=".15" stop-color="#fff"/><stop offset=".62" stop-color="#fff" stop-opacity=".6"/><stop offset="1" stop-color="#fff" stop-opacity="0"/></linearGradient><linearGradient id="paint1_linear_4263_3051" x1="14.085" y1="34.929" x2="16.703" y2="20.653" gradientUnits="userSpaceOnUse"><stop offset=".15" stop-color="#fff"/><stop offset=".62" stop-color="#fff" stop-opacity=".6"/><stop offset="1" stop-color="#fff" stop-opacity="0"/></linearGradient></defs></svg>